<svg xmlns="http://www.w3.org/2000/svg" width="224.88" viewBox="0 0 224.88 61.5" height="61.5" version="1.0"><defs><clipPath id="a"><path d="M 6.949219 6.101562 L 218.972656 6.101562 L 218.972656 61.003906 L 6.949219 61.003906 Z M 6.949219 6.101562"/></clipPath><clipPath id="b"><path d="M 175 6.101562 L 201 6.101562 L 201 36 L 175 36 Z M 175 6.101562"/></clipPath><clipPath id="c"><path d="M 186 31 L 217 31 L 217 61.003906 L 186 61.003906 Z M 186 31"/></clipPath><clipPath id="d"><path d="M 165 9 L 218.972656 9 L 218.972656 61.003906 L 165 61.003906 Z M 165 9"/></clipPath></defs><path fill="#38B6FF" d="M 191.175781 52.191406 L 30.6875 52.191406 C 18.273438 52.191406 8.207031 42.085938 8.207031 29.617188 C 8.207031 17.148438 18.273438 7.042969 30.6875 7.042969 L 191.175781 7.042969 C 203.589844 7.042969 213.65625 17.148438 213.65625 29.617188 C 213.65625 42.085938 203.589844 52.191406 191.175781 52.191406"/><g clip-path="url(#a)"><path transform="matrix(.03122 0 0 -.03135 -6.154 108.002)" fill="none" d="M 6320.058355 1779.993048 L 1179.965109 1779.993048 C 782.369482 1779.993048 459.964217 2102.292533 459.964217 2499.965496 C 459.964217 2897.638459 782.369482 3219.937943 1179.965109 3219.937943 L 6320.058355 3219.937943 C 6717.653982 3219.937943 7040.059246 2897.638459 7040.059246 2499.965496 C 7040.059246 2102.292533 6717.653982 1779.993048 6320.058355 1779.993048 Z M 6320.058355 1779.993048" stroke="#000" stroke-width="60" stroke-miterlimit="10"/></g><path d="M 44.703125 31.398438 L 47.328125 32.234375 C 46.925781 33.703125 46.257812 34.796875 45.320312 35.507812 C 44.386719 36.222656 43.199219 36.578125 41.757812 36.578125 C 39.980469 36.578125 38.515625 35.96875 37.367188 34.746094 C 36.222656 33.523438 35.648438 31.855469 35.648438 29.734375 C 35.648438 27.492188 36.222656 25.753906 37.378906 24.515625 C 38.53125 23.273438 40.046875 22.652344 41.925781 22.652344 C 43.5625 22.652344 44.894531 23.140625 45.921875 24.113281 C 46.53125 24.6875 46.988281 25.515625 47.292969 26.59375 L 44.613281 27.238281 C 44.453125 26.539062 44.121094 25.988281 43.621094 25.585938 C 43.117188 25.179688 42.503906 24.976562 41.785156 24.976562 C 40.792969 24.976562 39.984375 25.335938 39.367188 26.050781 C 38.746094 26.769531 38.4375 27.929688 38.4375 29.53125 C 38.4375 31.234375 38.742188 32.449219 39.351562 33.171875 C 39.960938 33.894531 40.753906 34.253906 41.730469 34.253906 C 42.449219 34.253906 43.070312 34.023438 43.589844 33.566406 C 44.105469 33.105469 44.480469 32.382812 44.703125 31.398438"/><path d="M 49.726562 36.351562 L 49.726562 22.992188 L 52.433594 22.992188 L 52.433594 34.082031 L 59.164062 34.082031 L 59.164062 36.351562 L 49.726562 36.351562"/><path d="M 61.015625 36.351562 L 61.015625 22.882812 L 63.722656 22.882812 L 63.722656 36.351562 L 61.015625 36.351562"/><path d="M 74.882812 31.398438 L 77.507812 32.234375 C 77.105469 33.703125 76.433594 34.796875 75.5 35.507812 C 74.5625 36.222656 73.375 36.578125 71.9375 36.578125 C 70.15625 36.578125 68.691406 35.96875 67.546875 34.746094 C 66.398438 33.523438 65.824219 31.855469 65.824219 29.734375 C 65.824219 27.492188 66.402344 25.753906 67.554688 24.515625 C 68.707031 23.273438 70.222656 22.652344 72.101562 22.652344 C 73.742188 22.652344 75.074219 23.140625 76.097656 24.113281 C 76.707031 24.6875 77.164062 25.515625 77.46875 26.59375 L 74.789062 27.238281 C 74.632812 26.539062 74.300781 25.988281 73.796875 25.585938 C 73.292969 25.179688 72.683594 24.976562 71.964844 24.976562 C 70.96875 24.976562 70.164062 25.335938 69.542969 26.050781 C 68.925781 26.769531 68.617188 27.929688 68.617188 29.53125 C 68.617188 31.234375 68.921875 32.449219 69.53125 33.171875 C 70.140625 33.894531 70.933594 34.253906 71.910156 34.253906 C 72.628906 34.253906 73.246094 34.023438 73.765625 33.566406 C 74.285156 33.105469 74.65625 32.382812 74.882812 31.398438"/><path d="M 79.867188 36.351562 L 79.867188 22.882812 L 82.574219 22.882812 L 82.574219 28.863281 L 88.042969 22.882812 L 91.683594 22.882812 L 86.636719 28.128906 L 91.960938 36.351562 L 88.457031 36.351562 L 84.769531 30.027344 L 82.574219 32.28125 L 82.574219 36.351562 L 79.867188 36.351562"/><path d="M 98.574219 36.351562 L 98.574219 22.882812 L 101.28125 22.882812 L 101.28125 28.183594 L 106.585938 28.183594 L 106.585938 22.882812 L 109.292969 22.882812 L 109.292969 36.351562 L 106.585938 36.351562 L 106.585938 30.460938 L 101.28125 30.460938 L 101.28125 36.351562 L 98.574219 36.351562"/><path d="M 112.09375 36.351562 L 112.09375 22.882812 L 122.035156 22.882812 L 122.035156 25.160156 L 114.800781 25.160156 L 114.800781 28.144531 L 121.53125 28.144531 L 121.53125 30.414062 L 114.800781 30.414062 L 114.800781 34.082031 L 122.292969 34.082031 L 122.292969 36.351562 L 112.09375 36.351562"/><path d="M 127.304688 28.578125 L 129.308594 28.578125 C 130.605469 28.578125 131.417969 28.523438 131.742188 28.414062 C 132.0625 28.304688 132.316406 28.113281 132.5 27.84375 C 132.683594 27.574219 132.773438 27.238281 132.773438 26.832031 C 132.773438 26.378906 132.65625 26.015625 132.414062 25.734375 C 132.171875 25.457031 131.832031 25.28125 131.394531 25.207031 C 131.171875 25.175781 130.515625 25.160156 129.417969 25.160156 L 127.304688 25.160156 Z M 124.597656 36.351562 L 124.597656 22.882812 L 130.296875 22.882812 C 131.730469 22.882812 132.769531 23.003906 133.417969 23.246094 C 134.070312 23.488281 134.589844 23.917969 134.980469 24.535156 C 135.371094 25.15625 135.5625 25.863281 135.5625 26.660156 C 135.5625 27.667969 135.269531 28.503906 134.675781 29.160156 C 134.085938 29.820312 133.203125 30.234375 132.023438 30.40625 C 132.609375 30.75 133.09375 31.125 133.472656 31.535156 C 133.855469 31.945312 134.367188 32.675781 135.015625 33.722656 L 136.652344 36.351562 L 133.414062 36.351562 L 131.457031 33.417969 C 130.761719 32.371094 130.285156 31.710938 130.03125 31.441406 C 129.773438 31.167969 129.503906 30.980469 129.214844 30.878906 C 128.929688 30.777344 128.476562 30.726562 127.855469 30.726562 L 127.304688 30.726562 L 127.304688 36.351562 L 124.597656 36.351562"/><path d="M 138.117188 36.351562 L 138.117188 22.882812 L 148.058594 22.882812 L 148.058594 25.160156 L 140.824219 25.160156 L 140.824219 28.144531 L 147.558594 28.144531 L 147.558594 30.414062 L 140.824219 30.414062 L 140.824219 34.082031 L 148.316406 34.082031 L 148.316406 36.351562 L 138.117188 36.351562"/><path d="M 180.914062 26.429688 C 181.210938 26.085938 181.527344 25.765625 181.871094 25.464844 L 176.023438 19.597656 C 175.761719 19.332031 175.332031 19.332031 175.066406 19.597656 C 174.800781 19.863281 174.800781 20.292969 175.066406 20.558594 L 180.914062 26.429688"/><path transform="matrix(.03122 0 0 -.03135 -6.154 108.002)" fill="none" d="M 5991.397652 2601.626253 C 6000.905918 2612.589668 6011.039727 2622.805577 6022.049298 2632.398566 L 5834.76149 2819.524126 C 5826.379203 2827.995856 5812.61724 2827.995856 5804.109844 2819.524126 C 5795.602449 2811.052397 5795.602449 2797.348128 5804.109844 2788.876398 Z M 5991.397652 2601.626253" stroke="#000" stroke-width="27.14" stroke-miterlimit="10"/><path d="M 178.664062 32.5 C 178.664062 32.273438 178.675781 32.046875 178.691406 31.820312 L 170.421875 31.820312 C 170.046875 31.820312 169.746094 32.125 169.746094 32.5 C 169.746094 32.875 170.046875 33.179688 170.421875 33.179688 L 178.691406 33.179688 C 178.675781 32.957031 178.664062 32.730469 178.664062 32.5"/><path transform="matrix(.03122 0 0 -.03135 -6.154 108.002)" fill="none" d="M 5919.335009 2408.022311 C 5919.335009 2415.248198 5919.710335 2422.474085 5920.21077 2429.699972 L 5655.355533 2429.699972 C 5643.345093 2429.699972 5633.711719 2419.9824 5633.711719 2408.022311 C 5633.711719 2396.062221 5643.345093 2386.344649 5655.355533 2386.344649 L 5920.21077 2386.344649 C 5919.710335 2393.445952 5919.335009 2400.671839 5919.335009 2408.022311 Z M 5919.335009 2408.022311" stroke="#000" stroke-width="27.14" stroke-miterlimit="10"/><path d="M 187.917969 23.207031 C 188.148438 23.207031 188.371094 23.214844 188.59375 23.234375 L 188.59375 14.929688 C 188.59375 14.554688 188.292969 14.25 187.917969 14.25 C 187.542969 14.25 187.242188 14.554688 187.242188 14.929688 L 187.242188 23.234375 C 187.464844 23.214844 187.691406 23.207031 187.917969 23.207031"/><g clip-path="url(#b)"><path transform="matrix(.03122 0 0 -.03135 -6.154 108.002)" fill="none" d="M 6215.717652 2704.408269 C 6223.099069 2704.408269 6230.230268 2704.1591 6237.361467 2703.536179 L 6237.361467 2968.402319 C 6237.361467 2980.362408 6227.728093 2990.079981 6215.717652 2990.079981 C 6203.707211 2990.079981 6194.073837 2980.362408 6194.073837 2968.402319 L 6194.073837 2703.536179 C 6201.205036 2704.1591 6208.461344 2704.408269 6215.717652 2704.408269 Z M 6215.717652 2704.408269" stroke="#000" stroke-width="27.14" stroke-miterlimit="10"/></g><path d="M 194.921875 26.429688 L 200.769531 20.558594 C 201.035156 20.292969 201.035156 19.863281 200.769531 19.597656 C 200.503906 19.332031 200.074219 19.332031 199.8125 19.597656 L 193.964844 25.464844 C 194.308594 25.765625 194.628906 26.085938 194.921875 26.429688"/><path transform="matrix(.03122 0 0 -.03135 -6.154 108.002)" fill="none" d="M 6440.037652 2601.626253 L 6627.32546 2788.876398 C 6635.832855 2797.348128 6635.832855 2811.052397 6627.32546 2819.524126 C 6618.818064 2827.995856 6605.056101 2827.995856 6596.673814 2819.524126 L 6409.386007 2632.398566 C 6420.395577 2622.805577 6430.654495 2612.589668 6440.037652 2601.626253 Z M 6440.037652 2601.626253" stroke="#000" stroke-width="27.14" stroke-miterlimit="10"/><path d="M 180.914062 38.574219 L 175.066406 44.441406 C 174.800781 44.710938 174.800781 45.140625 175.066406 45.40625 C 175.199219 45.539062 175.375 45.605469 175.546875 45.605469 C 175.71875 45.605469 175.894531 45.539062 176.023438 45.40625 L 181.871094 39.535156 C 181.527344 39.238281 181.210938 38.917969 180.914062 38.574219"/><path transform="matrix(.03122 0 0 -.03135 -6.154 108.002)" fill="none" d="M 5991.397652 2214.293784 L 5804.109844 2027.168223 C 5795.602449 2018.571909 5795.602449 2004.86764 5804.109844 1996.39591 C 5808.363542 1992.160045 5813.993436 1990.042113 5819.498221 1990.042113 C 5825.003007 1990.042113 5830.632901 1992.160045 5834.76149 1996.39591 L 6022.049298 2183.646055 C 6011.039727 2193.114459 6000.905918 2203.330369 5991.397652 2214.293784 Z M 5991.397652 2214.293784" stroke="#000" stroke-width="27.14" stroke-miterlimit="10"/><g clip-path="url(#c)"><path d="M 216.339844 43.699219 L 186.636719 31.167969 L 198.910156 61.085938 L 202.226562 49.761719 L 211.414062 59.050781 C 211.746094 59.386719 212.285156 59.386719 212.617188 59.054688 L 214.230469 57.449219 C 214.5625 57.117188 214.5625 56.574219 214.234375 56.242188 L 205.042969 46.949219 L 216.339844 43.699219"/></g><g clip-path="url(#d)"><path transform="matrix(.03122 0 0 -.03135 -6.154 108.002)" fill="none" d="M 7126.008962 2050.839233 L 6174.68198 2450.505544 L 6567.773692 1496.314684 L 6673.991026 1857.484459 L 6968.24682 1561.223085 C 6978.881064 1550.508838 6996.146073 1550.508838 7006.780317 1561.0985 L 7058.450233 1612.302632 C 7069.084478 1622.892294 7069.084478 1640.209506 7058.575342 1650.799169 L 6764.194439 1947.185127 Z M 7126.008962 2050.839233" stroke="#000" stroke-width="48.913" stroke-miterlimit="10"/></g></svg>